<svg xmlns="http://www.w3.org/2000/svg" width="170" height="170" style="transform-origin:bottom center" transform="matrix(.3 0 0 .3 -1.5 -3)"><path d="M124.19 69.35c2.13-6.19 11.73-6.04 15.84-8.76 2.88-1.9 5.67-3.84 5.8-12.92.11-7.77 3.76-9.83 5.94-10.52 0-2.22-3.35-.73-6.14 1.56 4.01-9.97 12.53-1.61 12.53-1.61-5.04-8.73-12.16-4.68-14.75-.37-2.58 4.35-.66 14.16-5.99 16.58-5.31 2.44-8.11-2.03-11.84-.96-5.45 1.56-5.58 8.75-11.04 6.42 4.18-2.67 3.99-5.18 6.78-8.23 5.82-6.36 15.35.62 17.46-17.37l.96 3.41c10.06-13.52 21.65-1.67 19.95 2.02-13.93-2.55-11.01 8.5-12.35 15.94h10.17l-33.32 14.81zm18.91-18.54c1.57 10-19.36 6.25-21.85 14.35 4.02-13.07 19.77-4.74 21.85-14.35m11.31 84.32l-1.75-1.78c2.42.48 5.35-1.44 7.1-2.48-3.27 1.93-7.52.77-10.44-1.57l1.56 2.5c-7.77-2.07-6.92-14.6-11.53-18.63-3.96-3.48-8.43-1.59-14.44-6.2-5.94-4.55-8.39-16.58-19.39-24 14.96-4.23 19.86 22.79 34.18 22.79 7.14 0 10.92-6.03 17.35-7.04 4.51-.7 9.44-.31 10.22 3.76.8 4.27-.8 7.63-.8 7.63s2.18-2.32 2.18-6.46c0-8.16-8.17-8.06-10.95-7.84-6.32.52-7.86 4.58-15.75 2.77-10.04-2.32-12.04-19.78-23.74-20.87 6.1-5.08 11.96 4.11 17.48 4.04 4.01-.07 5.36-3.31 7.99-9.78 3.04-7.47 7.28-1.37 10.65 1.77 3.41 3.12 8.4 1.93 11.32-.61-.78 2.41-3.47 2.36-2.42 3.95.46.71 1.17.38 1.92-.3 3.83-3.54 4.74-12.83.62-15.06 3.15 14.77-9.9 11.31-9.53 9.33 2.42.81 6.53-1.63 4.84-1.63-11.36 0-9.62-5.49-15.82-4.92 0 0-5.16-.23-8.26 8.07-1.98 5.31-7.31-2.06-13.61 0 4.22-5.59 7.39-.91 10.86-3.23 3.47-2.36 7.48-9.62 15.71-5.98l4.39-3.84-2.92 4.79c8.54 5.62 13.5 5.09 12.67-5.48 11.06 6.44 4.96 21.27-3.41 21.16-4.94-.04-6.63-2.55-9.48-3.65-2.01-.75-3.62.79-5.5 2.76l7.94 3.11-9.65-1.38c-2.92 2.87-7.27 5.4-13.4 2.66l1.2 2.25h33.81l-23.14 10.31c6.18 1.28 13.8-6.31 22.53-1.06 8.42 5.05 4.61 16.54 1.1 16.52-3.14-.04 2.87-10.33-5.73-10.11-3.16.07-5.68 2.66-8.75 5.09l2.83 7.01-4.64-5.67c-2.49 1.79-5.16 3.14-8.19 2.74l15.99 9.44h-10.9c-.13 2.67.12 4.54 1.2 6.85l1.1-.46c.85 1.75 5.76 4.7 12.68 3.52-2.57 9.94-16.96 7.14-19.7 4.35l.15 3.58c-6.3-15.51-11.14-16.44-20.51-16.44l21.81 22.01-5.21-1.09c1.57 6.18-5.83 16.95-11.13 17.56-2.07.23 3.74-4.08 3.74-10.23 0-6.18-6.89-8.06-9.81-10.47-5.34-4.43-7.5-13.45-9.57-16.93 3.76 1.96 8.21 9.26 11.47 12.98 3.28 3.71 10.22 6.45 10.22 12.26 0 5.8-2.17 7.84-2.43 8.55 2.18 0 8.98-11.9 2.54-17.59-3.19-2.84-5.21-4.63-8.49-7.34-4.31-3.58-8.37-8.32-11.2-12.5-6.03-8.86-15.67-15.19-11.14-22.37-6.99 11.08 5.78 19.41 7.24 28.1 1.46 8.68 6.15 17.98 11.15 19.22-.88.24-1.7.33-2.48.33l-1.41-.13c-8.1-1.56-14.88-28.13-14.88-24.33 0 6.97 12.16 38.71 12.16 38.71l-11.05-7.03c-1.79 7.27 6.19 7.61 5.43 14.21-.9 7.46-9.56 6.77-9.4 5.07.11-1.08 3.42.05 3.42-1.72 0-1.72-5.36-2.77-7.62-5.41-1.39-1.62-2.59-2.94-3.08-9.15l-3.38 4.46s4.09-10.66 4.68-13.45c.56-2.74-5.84-3.06-7.72-8.52l-1.26 27.13-8.17-11.07C74.5 164.82 57.33 164 56.23 162.74c12.47-9.24 6.44-13.39 3.34-21.25l-6.59 3.93 5.74-6.49c-.38-1.45-.5-3.3-.36-5.04.71-9.61 14.7-8.74 6.3-18.24l-22.62 36.28 2.86-19.53c-13.41 4.8-8.76 5.49-12.6 14.25-3.13 7.15-9.52 5.21-11.44 2.17-2.84-4.41.62-7.74 4.33-7.57 2.23-1.84-4.2-4.72-1.63-10.52 3.76-8.46 14.34-4.79 19.72-11.83l-13.23 1.4 14.78-4.1c1.05-2.42 1.67-5.7 1.7-10.16l-28.12 15.49 8.56-14.1c-15.7 12.96-19.49-3.3-26.97-2.01 1.93-8.69 9.21-3.73 12.42-3.73 3.23 0 7.92-5.74 9.56-6.99L5.17 85.75h41.91c3.15 0 4.92-1.08 3.39-2.87-1.99-2.39-9.73.44-18.49 1.09-5.34.37-8.55-1.67-11.19-4.1l-7.37 2.24 6.25-3.31c-4.3-4.27-7.59-8.64-17.73-2.5-3.14-8.15 4.43-15.1 11.24-15.28 9.68-.25 11.56 11.09 19.05 7.13L19.4 53.25l20.83 10.24-2.67-7.89-8.97-2.35 8.73.71C34.89 45.83 25.75 47.27 22 43.3c-8.13-8.63.67-19.65 7.32-16.57-4.59 9.78 3.88 13.96 10.9 12.57l-3.4-11.39 26.9 27.21c-6.17 4.65-13.02.54-16.42-9.54-3.25-9.65-9.89 1.23-20.08-2.52 5.39 1.99 12.41-.89 13.85 10.74.95 7.6 4.72 14.54 12.97 12.66-3.2 4.79-10.89-1.16-15.76 5.76 8.48-.94 11.56 6.13 17.43 10.16-7.26-5.01-2.01-10.2-10.97-11.37 3.25.42 5.77.74 8.91-.3 3.25-1.06 4.85-3.26 4.62-6.47 3.37 1.34 3.68 4.54 2.12 6.62-1.57 2.08-4.7 3.24-4.79 5.02 0 0 .09-.32 2.26-1.37-1.62 2.17-.57 5.14 1.22 7.07-.1-1.29-.09-3.31.67-3.68 1.36 3.14 4.42 4.8 6.4 4.33-3.6-3.81-1.12-7.05-1.12-7.05-1.57-.04-3.16 2.21-3.16 2.21s-1.08-3.59 2.71-5.1c-.3-.53-.05-1.16-.05-1.16 3.08 3.12 8.56 2.97 10.1 3.99 0 0-8.01-1.14-7.05 3.25.9 4.12 13.38 1.37 11.81-11.24 0 0 2.16-.22 2.96.56.81.76-.16 3.08-.16 3.08l1.59.73s-1.69 6.3-1.3 7.52c.23.69 3.08.75 3.52.77.62.05.24.65-.04.65h-4.49c-.66.05-2.64 2.4-.76 2.82 0 0 2.32.59 4.67.59 2.36 0 4.67-.59 4.67-.59s-.38 1.87-4.72 1.87c-4.32 0-6.03-.74-6.03-.74-1 2.7 4.71 5.42 5.28 5.6.59.18 1.51.12 1.71 0 .19-.14 4.15-3.28 4.15-3.28l-1.2 1.92c5.31-1.23 4.52-3.9 2.69-4.51-.07-1.21 3.05-.99 2.95 1.32-.13 2.94-7.66 4.58-8.6 6.56-.6 1.26.93 5.36 2.23 5.76 1.23.36 4.17.32 5.65-.48.45-.24 4.46-7.75 4.46-9.6 0-1.85-4.13-10.93-4.13-10.93.79-2.34 4.31-1.73 7.53-3.8-5.24 5.44-1.69 6.13 2.16 6.3-2.92 2.46-4.94 4.06-3.79 7.85 16.94 3.71 13.58 23.33 25.84 27.5-9.75 1.47-17.63-10.87-18.54-16.53-.36 6.03 1.84 11.39 6.46 16.24 4.02 4.19 11 3.54 16.66 3.56 10.05.09 6.65 13.02 15.05 15.94.04 0 3.06 1.32 8.55 1.32M90.96 49.25c-6.99 3.17-5.54-5.11-3.62-7.25 0 0 3.33 4.66 8 6.59-6.23-10.29.8-10.03-.36-23.56-.58-6.83-4.23-9.09-4.13-15.36.13-7.55 11.28-9.53 11.39-6.62.08 2.08-8.11 2.3-8.24 10.1-.11 7.3 8.08 9.07 7.89 16.16-.13 4.64-8.49 8.93-3.28 17.67l11.87-33.39-9.09 10.25c-2.92-3.61-5.21-3.96-5.21-10.45 0-6.52 7.28-7.45 7.28-10.47 0-2.44-3.64-2.78-6.3-2.91-4.12-.18-11.39 3.36-11.39 10.93s5.12 11.4.03 18.48l-4.4-6.62 3.26 8.47s-2.98 3.47-2.98 9.63c.02 12.1 9.98 13.22 9.28 8.35m-.08-28.47c4.29 13.85-5.67 13.83-5.65 20.66-1.74-8.01 7.9-13.22 5.65-20.66m19.73 48.96c.72 1.57 3.65-1.92 8.08-.58-2.14-1.45-8.46-1.44-8.08.58m-4.88-27.68c-1.62 4.37-6.13 5.6-8.32 9.42 1.23.03 7.61-2.44 10.03-6.51 2.32-3.94.18-14.44 7.67-17.26 7.81-2.94 16-7.27 6.76-16.68 14.18 3.59 6.21 18.67 4.53 20.88-1.6 2.05-6.82 6.17-6.82 12.81 0 4.9-4.42 10.5-7.87 11.18 3.64 1.46 9.06-6.84 9.06-6.84l17.69-22.78-10.17 5.24s2.79-2.4 2.79-10.36c0-11.24-12.12-13.26-11.99-9.76.09 2.31 4.12 3.96 4.23 7.78.13 3.83-5.26 5.99-9.46 7.21L112 20.11v7.07c-6.87 3.54-4.55 10.27-6.27 14.88m10.83-5.91c3.74-5.47 7.18-4.53 8.96-10.35-2.52 4.64-8.95 5.6-11.52 9.42-4.5 6.67 1.51 16.33-7.93 19.12 11.9.3 6.19-13.44 10.49-18.19m11.36 14.48c3.36-.86 5.43 2.08 8.05 1.3 1.46-.42 1.5-2.08.33-2.5 0 0 4.43-4.57 2.95-7.12-3.64 7.39-10.63 7.12-11.33 8.32m-20.61 24.13c.34 2.05 3.97-2.22 10.91.74-2.38-3.44-11.44-3.78-10.91-.74M57.76 60.21c-13.87 2.28-5.9-14.41-16.59-15.12 5.87 2.8 3.42 6.45 4.31 12.26 1.1 7 9.83 7.89 12.28 2.86m36.3 29.2c-.86.62-2.93 1.22-4.55 2.29-.17.29-.44 1.26-.8 1.5 1.65.35 5.21-2.03 5.35-3.79m45.43-7.83c2.84.2 11.65-10.02 8.61-11.23-3.02-1.23-2.8 9-8.61 11.23M33.83 41.59c-12.29-2.1-9.27-9.07-7.06-12.9-7.37-.58-7.75 16.17 7.06 12.9M2.79 74.1s6.94-6.62 12.88-.7c-4.86-4.84-10.83-6.05-12.88.7m39.63 4.65c-7.8 1.46-19.09-8.7-21.21-11.16-1.27-1.48-2.47-2.96-4.91-3.32-.15-.03-.11.17-.08.42.03.35.08.86-.13.96-.14.08-.49.01-1.36-.74-.87-.77-2.23-1.13-3.78-1-1.35.1-2.72.57-3.62 1.25-.91.67-1.22 1.42-.91 2.11.47 1.08 1.99.26 3.72.13 1.4-.08 2.99.58 4.41 1.03 1.13.34 1.92 1.6 3.07 2.84 5.74 6.23 17.05 10.72 24.8 7.48M43.23 93c5.49-.32 9.75-1.99 10.02-6.08-1.33 1.52-4.55 3.59-10.21 3.94-5.62.34-14.88-6.57-18.42 3.62 7.99-4.43 15.42 5.42 20.78.69m-32.47 13.89c3.17 2.4 7.43-1.52 5.42-5.45-7.55 4.16-10.06-4.83-14.93 1.07 1.83-.51 3.68.55 6.89 2.96l2.62 1.42zM51.91 93c-2.67 4.24-7.17 8.18-12.81 6.89-5.64-1.3-14.31-3.15-16.85 5.31 6.56-7.26 19.31 10.04 29.66-12.2m-24.14 49.26c-.7 4.36-2.64 3.35-2.98 3.17-.34-.19-.48-.67-.22-1 .3-.36.35-.86-.07-1.21-.43-.35-3.57.57-2.98 3.66.27 1.52 1.8 3.08 4.19 2.78 2.36-.29 4.64-2.4 2.06-7.4m28.02-34.67c-.28-7.95 4.73-18.2 6.87-19.35-15.68 8.39-8.87 22.39-13.29 30.45-6.81 12.37-18.81 5.6-22.8 13.09-2.48 4.65 4.17 4.87 4.17 14.87 0-2.42-.86-8.26 3.7-10.72l-2.09.19c-.65-2.35-3.02-1.61-3.02-1.61 2.4-4.05 11.75-1.25 24.94-12.47 11.67-9.92 10.9-25.68 14.2-31.66l-3.15 3.16c-4.65 4.99-4.84 13.14-10.72 22.58 1.11-1.8 1.34-4.27 1.19-8.53M78.6 99.5c-.61 0-.74.21-.74.33-.04.22.28.49.73.61.03 0 4.25 1 6.76.87 2.48.13 6.71-.86 6.75-.87.45-.12.76-.4.74-.61-.02-.12-.15-.33-.77-.33-.11 0-4.45.12-6.72.12-2.28 0-6.61-.12-6.75-.12m-2.81-14.07c.14 2.94 4.41 3.74 6.16 3.49-5.37-1.22-5.06-4.21-3.21-4.81.09-1.2-3.04-.99-2.95 1.32M73.5 89.2c.14 1.14 5.16 3.05 5.16 3.05s-1.23.95-3.81.02c1.33 2.29 4.63 2.26 4.63 2.26s-.25 1.35-3.86.39c.88 2.56 4.71 3.19 5.94 2.83 1.31-.39 2.82-4.5 2.23-5.76-.01 0-5.29-2.49-10.29-2.79m-2.07 62.32c0-6.68-2.04-6.23-2.04-14.32 0-8.82 7.54-11.2 8.17-18.14.87-9.37-8.43-9.62-5.44-22.74-3.95 17.34 1.65 15.96 1.65 22.16 0 6.2-9.87 6.97-9.87 17.84 0 6.41 3.94 8.18 3.94 15 0 6.84-4.43 8.7-4.43 8.7 1.66.19 8.02-1.06 8.02-8.5m4.28-3.24c6.09-7.62 2.18-3.88 4.37-14.14 1.35-6.34 3.28-6.12 5.33-11.3 1.78-4.51.91-14.54-6.09-19.34 3.77 6.52 3.54 11.09 1.97 16.5-1.57 5.38-3.78 5.95-6.16 12.06-1.78 4.61-.85 9.16-.85 9.16l1.43 7.06zm16.87-46.46c4.8 8.49-4.76 11.37-1.82 24.5 2 8.9 6.49 8.08 6.89 14.67.43 6.57-3.56 11.09-.65 15.47 2.87 4.33 8.57 6.26 6.74 11.8 2.97-5.45-2.68-9.75-4.16-15.73-1.11-4.59 5.83-8.69 3.85-14.67-.82-2.45-1.78-3.99-3.4-7.25l-3.4-6.86c-4.13-8.7 4.11-14.96-4.05-21.93m2.77-10.04c-.15.4-1.32.86-3.7 1.76-.32.53-1.05 1.41-1.78 1.85 2.83.79 5.98-2.07 5.48-3.61m-4.24-28.25c3.99 0 4.58-1.86 7.62-1.86 3.02 0 4.12 1.99 6.55 1.99 2.41 0 3.88-1.74 2.76-3.27-1.56 2.57-4.35-.91-6.41-.91-3.15 0-4.49 1.3-6.54 2.31-2.29 1.17-4.49.06-3.63-1.29-1.78-.02-2.91-2.19.12-4.75-5.33.58-4.48 7.78-.47 7.78m-15.08-3.71c-3-.02-6.47 3.33-7.1 1.16-.47-1.68 2.61-4.48 6.63-4.76-3.41-.96-9.03 2.2-10.04 5.64-1.08.1-2.95-1.29-2.95-1.29.93 7.9 8.29.96 11.1.96 2.51 0 10.4 5.69 10.55-1.38-2.77 3.22-4.72-.33-8.19-.33M50.6 31.04c.39-5.24 3.74-9.87 3.69-15.21-.06-7.85-9.07-.43-10.44-3.73-3.61-8.76 23.02-13.18 22.71 2.34-.18 8.17-2.44 17.2 3.95 18.13l4.84-19.78 5.09 28.38c-4.64-5.84-13.81-3.43-15.87-12.78-1.51-6.79 7-23.84-11.75-22.58 21.71 6.61-12.09 25.01 7.99 36.76 5.37 3.16 7.26 8.76 4.85 11.18-.32-7.97-8.24-8.96-11.14-12.34-2.59-3.03-3.67-5.75-3.91-8.3l-7.47-3.56 7.46 1.49zm3.9-19.34c-1.63-5.51-10.66-3.06-8.83-.85.86 1.03 4.38-2.04 8.83.85m5.38 17.14c-8.86 16.66 21.74 9.09 17.77 23.27 6.95-16.58-20.89-7.96-17.77-23.27M76.1 73.56c-2.54-1.4-8.85-1.71-11.56-5.64 2.88-1.32 5.87-3.85 8.37-3.33 5.69 1.12 3.77 8.08 3.19 8.97m-4.18-7.96c-3.43-.71-4.52 4.23-1.94 5.23.17-1.79 1.74-4.83 1.94-5.23m2.17 1.23c-.18.44-1 3.37-2.12 4.57 2.12.84 4.61-2.67 2.12-4.57m22.85-2.54c2.55-.52 5.62 2.07 8.58 3.43-2.78 4.04-9.29 4.36-11.9 5.8-.59-.9-2.56-8.08 3.32-9.23m3 6.43c2.64-1.02 1.53-6.09-1.98-5.36.21.41 1.81 3.53 1.98 5.36m-2.03.58c-1.16-1.21-1.96-4.22-2.18-4.67-2.53 1.93-.01 5.53 2.18 4.67" fill="#fd6270"/></svg>