<svg xmlns="http://www.w3.org/2000/svg" viewBox="0 0 100 100"><ellipse cx="51.01" cy="85.21" rx="6.54" ry="1.42" fill="#696f79" opacity=".5"/><path d="M76.78 39.09c0 14.13-23.05 46-25.59 46s-25.59-31.87-25.59-46a25.59 25.59 0 0 1 51.18 0z" fill="#f73449"/><path d="M59.63 36c.47-1.33 2.54-1.3 3.42-1.89.62-.41 1.23-.82 1.25-2.78 0-1.68.82-2.13 1.29-2.27 0-.48-.73-.16-1.33.33C65.13 27.24 67 29 67 29c-1.08-1.88-2.62-1-3.18-.08s-.14 3.06-1.29 3.58-1.75-.44-2.56-.2c-1.17.33-1.2 1.88-2.38 1.38.9-.57.86-1.12 1.46-1.77 1.26-1.38 3.32.13 3.77-3.75l.21.73c2.17-2.91 4.67-.36 4.3.44-3-.55-2.37 1.83-2.66 3.44h2.19zm4.09-4c.34 2.16-4.18 1.35-4.72 3.1.87-2.82 4.27-1 4.72-3.1m2.44 18.2l-.38-.39a2.51 2.51 0 0 0 1.53-.53 2 2 0 0 1-2.25-.34l.33.54c-1.67-.44-1.49-3.15-2.48-4s-1.82-.34-3.12-1.34-1.79-3.6-4.19-5.2c3.23-.91 4.29 4.92 7.38 4.92 1.54 0 2.36-1.3 3.75-1.52 1-.15 2-.06 2.2.81a3 3 0 0 1-.17 1.65 2.13 2.13 0 0 0 .47-1.39c0-1.76-1.76-1.74-2.36-1.7-1.37.12-1.7 1-3.4.6-2.17-.5-2.6-4.26-5.13-4.5 1.32-1.1 2.59.89 3.78.87.86 0 1.15-.71 1.72-2.11.66-1.61 1.57-.3 2.3.38a1.84 1.84 0 0 0 2.44-.13c-.17.52-.75.51-.52.85.1.16.25.09.41-.06.83-.76 1-2.77.14-3.25.68 3.19-2.14 2.44-2.06 2 .52.18 1.41-.35 1-.35-2.46 0-2.08-1.18-3.42-1.06 0 0-1.11-.05-1.78 1.74-.43 1.15-1.58-.44-2.94 0 .91-1.2 1.6-.19 2.34-.7s1.62-2.07 3.39-1.29l1-.83-.63 1c1.84 1.21 2.91 1.1 2.73-1.19 2.39 1.39 1.07 4.59-.73 4.57-1.07 0-1.43-.55-2.05-.79-.43-.16-.78.17-1.19.6l1.72.67-2.08-.3a2.42 2.42 0 0 1-2.89.58l.26.48h7.3l-5 2.23c1.34.27 3-1.36 4.86-.23s1 3.57.24 3.56.62-2.23-1.23-2.18c-.69 0-1.23.57-1.89 1.1l.61 1.51-1-1.22a2.5 2.5 0 0 1-1.77.59l3.45 2H64.5a2.72 2.72 0 0 0 .26 1.47l.23-.09a2.8 2.8 0 0 0 2.74.75c-.56 2.15-3.66 1.54-4.25.94v.78c-1.36-3.35-2.4-3.55-4.43-3.55L63.79 52l-1.12-.24c.33 1.34-1.26 3.66-2.41 3.79-.44.05.81-.88.81-2.2S59.58 51.6 59 51.08c-1.15-1-1.62-2.91-2.06-3.66.81.42 1.77 2 2.47 2.8s2.21 1.39 2.21 2.65a2.91 2.91 0 0 1-.62 1.84c.47 0 1.94-2.57.55-3.79-.68-.62-1.12-1-1.83-1.59a13.49 13.49 0 0 1-2.42-2.69c-1.3-1.92-3.38-3.28-2.4-4.83-1.47 2.39 1.29 4.19 1.6 6.06s1.33 3.88 2.41 4.15a2.11 2.11 0 0 1-.54.07h-.3c-1.75-.33-3.22-6.07-3.22-5.25 0 1.51 2.63 8.36 2.63 8.36l-2.38-1.55c-.39 1.57 1.33 1.64 1.17 3.06-.2 1.61-2.07 1.47-2 1.1s.74 0 .74-.37-1.16-.6-1.65-1.17c-.3-.35-.56-.64-.66-2l-.73 1s.88-2.3 1-2.9-1.26-.67-1.67-1.84l-.3 5.84L49.25 54c-.34 2.63-4 2.45-4.28 2.18 2.69-2 1.39-2.89.72-4.59l-1.42.85L45.51 51a3.21 3.21 0 0 1-.08-1.09c.15-2.07 3.17-1.88 1.36-3.93l-4.88 7.83.61-4.22c-2.89 1-1.89 1.19-2.71 3.08a1.38 1.38 0 0 1-2.47.47 1 1 0 0 1 .93-1.64c.48-.4-.91-1-.35-2.27.81-1.82 3.09-1 4.25-2.55l-2.85.3 3.19-.88a5.68 5.68 0 0 0 .37-2.2l-6.07 3.35 1.84-3c-3.38 2.79-4.2-.72-5.82-.44.42-1.87 2-.8 2.69-.8s1.71-1.24 2.06-1.51L34 39.54h9c.68 0 1.07-.23.74-.62s-2.1.1-4 .24a3 3 0 0 1-2.42-.89l-1.59.49 1.35-.76c-.93-.92-1.64-1.86-3.83-.54-.68-1.76 1-3.26 2.43-3.3 2.08-.05 2.49 2.4 4.11 1.54L37 32.53l4.49 2.21-.55-1.74-1.94-.47 1.89.15c-.53-1.75-2.5-1.44-3.31-2.3-1.75-1.86.14-4.24 1.58-3.57-1 2.11.84 3 2.35 2.71l-.73-2.46 5.81 5.87c-1.34 1-2.82.12-3.55-2.06s-2.13.27-4.33-.54c1.16.43 2.68-.19 3 2.32.2 1.64 1 3.14 2.8 2.73-.69 1-2.35-.25-3.4 1.24 1.83-.2 2.49 1.33 3.76 2.2-1.57-1.08-.43-2.21-2.37-2.46a4.06 4.06 0 0 0 1.93-.06 1.28 1.28 0 0 0 1-1.4.9.9 0 0 1 .46 1.43c-.34.45-1 .7-1 1.08 0 0 0-.07.48-.29a1.21 1.21 0 0 0 .27 1.52c0-.28 0-.71.14-.79a1.4 1.4 0 0 0 1.38.93 1.16 1.16 0 0 1-.24-1.52c-.34 0-.68.48-.68.48a.91.91 0 0 1 .58-1.1.34.34 0 0 1 0-.25c.67.67 1.85.64 2.18.86 0 0-1.73-.25-1.52.7s2.89.29 2.55-2.43c0 0 .47 0 .64.13s0 .66 0 .66l.35.16a6.72 6.72 0 0 0-.28 1.62c0 .15.66.16.76.17s.05.14 0 .14h-1c-.14 0-.57.51-.17.6a4.71 4.71 0 0 0 1 .13 4.59 4.59 0 0 0 1-.13s-.08.41-1 .41a3.67 3.67 0 0 1-1.3-.16c-.22.58 1 1.17 1.14 1.21a.75.75 0 0 0 .37 0l.9-.71-.26.41c1.14-.26 1-.84.58-1 0-.26.66-.21.63.28s-1.65 1-1.85 1.42a1.39 1.39 0 0 0 .48 1.24 2.08 2.08 0 0 0 1.22-.1 7.28 7.28 0 0 0 1-2.07 14.87 14.87 0 0 0-.89-2.36c.17-.51.93-.38 1.63-.82-1.14 1.17-.37 1.32.46 1.36-.63.53-1.06.87-.81 1.69 3.65.8 2.93 5 5.57 5.94-2.1.31-3.8-2.35-4-3.57a4.51 4.51 0 0 0 1.4 3.5c.86.91 2.37.77 3.59.77 2.17 0 1.44 2.81 3.25 3.44a4.9 4.9 0 0 0 1.84.29m-13.82-18.5c-1.5.68-1.19-1.11-.78-1.57a4.61 4.61 0 0 0 1.73 1.42c-1.34-2.22.17-2.16-.08-5.08-.12-1.48-.91-2-.89-3.32 0-1.63 2.44-2.05 2.46-1.42 0 .44-1.75.49-1.78 2.18s1.75 1.95 1.7 3.48c0 1-1.83 1.93-.7 3.82L56.68 24l-2 2.21c-.63-.78-1.13-.85-1.13-2.25s1.57-1.61 1.57-2.26-.78-.6-1.36-.63a2.44 2.44 0 0 0-2.45 2.36c0 1.63 1.1 2.46 0 4L50.4 26l.71 1.83a3.29 3.29 0 0 0-.65 2.07c0 2.62 2.15 2.86 2 1.81m0-6.15c.92 3-1.23 3-1.22 4.46-.38-1.73 1.7-2.85 1.22-4.46m4.24 10.53c.16.34.79-.42 1.75-.13-.46-.31-1.83-.31-1.75.13m-1.05-6c-.35.95-1.32 1.21-1.79 2A3.7 3.7 0 0 0 56 30.74c.5-.85 0-3.11 1.66-3.72s3.45-1.57 1.46-3.6c3.06.77 1.34 4 1 4.51a4.29 4.29 0 0 0-1.47 2.76 2.74 2.74 0 0 1-1.7 2.41c.79.32 2-1.47 2-1.47l3.82-4.92-2.2 1.13s.6-.52.6-2.23c0-2.43-2.61-2.86-2.58-2.11 0 .5.88.85.91 1.68s-1.14 1.29-2 1.55l-.5-1.35v1.52c-1.48.77-1 2.22-1.35 3.21M58 28.84c.81-1.18 1.55-1 1.93-2.24-.54 1-1.93 1.21-2.48 2-1 1.44.32 3.52-1.72 4.12 2.57.07 1.34-2.9 2.27-3.92m2.44 3.2c.72-.18 1.17.45 1.74.28a.28.28 0 0 0 .07-.54s1-1 .64-1.53c-.79 1.59-2.3 1.53-2.45 1.79M56 37.17c.08.44.86-.48 2.36.16-.52-.74-2.47-.81-2.36-.16M45.3 34c-3 .49-1.27-3.11-3.58-3.26 1.27.6.74 1.39.93 2.64a1.44 1.44 0 0 0 2.65.62m7.83 6.3c-.18.14-.63.27-1 .5 0 .06-.1.27-.17.32a1.29 1.29 0 0 0 1.15-.82m9.81-1.69c.61 0 2.51-2.16 1.85-2.42s-.6 1.94-1.85 2.42M40.14 30c-2.66-.45-2-2-1.53-2.78-1.61-.12-1.67 3.5 1.53 2.78m-6.7 7s1.49-1.43 2.78-.15c-1-1.05-2.34-1.31-2.78.15M42 38c-1.68.32-4.12-1.88-4.58-2.41a1.6 1.6 0 0 0-1.06-.71v.3c0 .03-.11 0-.3-.16a1.06 1.06 0 0 0-.81-.22 1.49 1.49 0 0 0-.78.27c-.2.14-.27.31-.2.45s.43.06.8 0a3.06 3.06 0 0 1 1 .23c.24.07.41.34.66.61 1.15 1.4 3.59 2.37 5.27 1.64m.17 3.08c1.19-.07 2.11-.43 2.17-1.31a3.22 3.22 0 0 1-2.21.84c-1.21.08-3.21-1.41-4 .79 1.72-1 3.32 1.17 4.48.14m-7 3c.68.52 1.6-.32 1.16-1.17-1.63.9-2.17-1-3.22.23.4-.11.8.12 1.49.64zM44 41.11a2.71 2.71 0 0 1-2.77 1.49c-1.21-.29-3.08-.68-3.63 1.14 1.41-1.57 4.16 2.17 6.4-2.63m-5.17 10.63c-.15.94-.57.72-.64.68a.14.14 0 0 1 0-.21.19.19 0 0 0 0-.27.64.64 0 0 0-.64.8.79.79 0 0 0 .9.6c.51-.07 1-.52.45-1.6m6-7.48c-.06-1.72 1-3.93 1.49-4.18-3.39 1.81-1.92 4.83-2.87 6.57-1.47 2.67-4.06 1.21-4.92 2.83-.54 1 .9 1.05.9 3.21 0-.53-.19-1.78.8-2.32l-.45.05a.51.51 0 0 0-.66-.35c.52-.88 2.54-.27 5.39-2.69 2.51-2.14 2.35-5.54 3.06-6.84l-.68.69c-1 1.07-1 2.83-2.31 4.87a3.24 3.24 0 0 0 .25-1.84m4.93-1.75c-.13 0-.16 0-.16.07s.06.11.16.13a6.65 6.65 0 0 0 1.46.19 6.84 6.84 0 0 0 1.45-.19c.1 0 .17-.08.16-.13s0-.07-.16-.07h-2.91m-.61-3c0 .64 1 .81 1.33.76-1.16-.27-1.09-.91-.69-1 0-.26-.66-.21-.64.28m-.49.82c0 .24 1.11.66 1.11.66A.9.9 0 0 1 49 41a1.23 1.23 0 0 0 1 .49s0 .29-.83.08a1.21 1.21 0 0 0 1.28.61c.28-.08.61-1 .49-1.24a7 7 0 0 0-2.22-.6m-.45 13.45c0-1.44-.44-1.35-.44-3.09 0-1.91 1.62-2.42 1.76-3.92.19-2-1.82-2.08-1.17-4.91-.86 3.75.35 3.45.35 4.79s-2.13 1.5-2.13 3.85c0 1.38.85 1.76.85 3.23a1.92 1.92 0 0 1-.95 1.88 1.7 1.7 0 0 0 1.73-1.83m.92-.7c1.32-1.65.47-.84.95-3 .29-1.37.7-1.33 1.15-2.44A3.89 3.89 0 0 0 50 43.37a4.07 4.07 0 0 1 .43 3.56c-.34 1.16-.82 1.29-1.33 2.61a3.86 3.86 0 0 0-.19 2zm3.64-10c1 1.83-1 2.45-.39 5.29.43 1.92 1.4 1.74 1.49 3.16s-.77 2.4-.14 3.34 1.85 1.35 1.45 2.55c.64-1.18-.58-2.11-.9-3.4-.24-1 1.26-1.87.84-3.16a12.92 12.92 0 0 0-.74-1.57l-.73-1.48c-.89-1.88.88-3.22-.88-4.73m.6-2.17c0 .09-.28.19-.8.39a1.27 1.27 0 0 1-.38.39c.61.17 1.29-.44 1.18-.78m-.91-6.09c.86 0 1-.41 1.64-.41s.89.43 1.41.43.84-.37.6-.7c-.34.55-.94-.2-1.38-.2a2.63 2.63 0 0 0-1.41.5c-.5.25-1 0-.79-.28-.38 0-.62-.47 0-1-1.15.12-1 1.68-.1 1.68M49.24 34c-.65 0-1.39.72-1.53.25s.56-1 1.43-1A2.1 2.1 0 0 0 47 34.39c-.23 0-.63-.28-.63-.28.2 1.7 1.79.2 2.39.2S51 35.54 51 34c-.6.69-1-.07-1.77-.07m-5.49-6.21c.09-1.14.81-2.13.8-3.29 0-1.69-2-.09-2.25-.8-.78-1.89 5-2.85 4.9.5 0 1.76-.53 3.71.85 3.92l1.06-4.25 1.1 6.12c-1-1.26-3-.74-3.43-2.76-.33-1.46 1.51-5.14-2.54-4.87 4.69 1.43-2.6 5.4 1.73 7.93 1.16.69 1.56 1.89 1 2.42-.06-1.72-1.77-1.94-2.4-2.67a3.24 3.24 0 0 1-.85-1.79l-1.61-.77zm.85-4.18c-.36-1.19-2.31-.66-1.91-.18.19.22 1-.44 1.91.18m1.16 3.7c-1.92 3.6 4.69 2 3.83 5 1.5-3.57-4.51-1.72-3.83-5m3.5 9.65c-.55-.3-1.91-.37-2.5-1.21.62-.29 1.27-.84 1.81-.72 1.23.24.81 1.74.69 1.93m-.9-1.72c-.75-.15-1 .92-.42 1.13a4 4 0 0 1 .42-1.13m.46.27a3.46 3.46 0 0 1-.45 1 .56.56 0 0 0 .45-1m4.93-.55c.56-.11 1.22.45 1.86.74-.6.87-2 .94-2.57 1.25-.13-.19-.55-1.74.71-2m.65 1.39a.63.63 0 0 0-.39-1.13 4.25 4.25 0 0 1 .43 1.16m-.44.12a3.67 3.67 0 0 1-.47-1 .57.57 0 0 0 .47 1" fill="#fff"/></svg>